<svg width="40" height="30" viewBox="0 0 40 30" fill="none" xmlns="http://www.w3.org/2000/svg">
<path d="M38.9427 4.16756C38.4853 2.59599 37.137 1.35701 35.4267 0.936707C32.3243 0.172852 19.887 0.172852 19.887 0.172852C19.887 0.172852 7.44967 0.172852 4.3473 0.936707C2.63702 1.35701 1.28868 2.59599 0.831277 4.16756C-5.96046e-08 7.01831 0 14.7921 0 14.7921C0 14.7921 -5.96046e-08 22.5659 0.831277 25.4166C1.28868 26.9882 2.63702 28.2272 4.3473 28.6475C7.44967 29.4113 19.887 29.4113 19.887 29.4113C19.887 29.4113 32.3243 29.4113 35.4267 28.6475C37.139 28.2272 38.4853 26.9882 38.9427 25.4166C39.774 22.5659 39.774 14.7921 39.774 14.7921C39.774 14.7921 39.774 7.01831 38.9427 4.16756ZM15.9096 21.1222V8.46196L27.8418 14.7921L15.9096 21.1222Z" fill="#109CF1"/>
</svg>
